<svg width="40" height="40" viewBox="0 0 40 40" fill="none" xmlns="http://www.w3.org/2000/svg">
<circle cx="20" cy="20" r="19" fill="#896CFE" stroke="#896CFE" stroke-width="2"/>
<path d="M30.2677 28.5766C29.68 27.3457 28.9032 26.2169 27.9661 25.2323C26.6682 26.5361 25.0726 27.4958 23.3205 28.0263C23.2387 28.6481 22.9368 29.2187 22.4708 29.6323C22.0048 30.0459 21.4064 30.2744 20.7866 30.2754C20.4485 30.2761 20.1137 30.2093 19.8011 30.0789C19.4886 29.9485 19.2045 29.7569 18.9652 29.5153C18.7259 29.2736 18.5362 28.9866 18.4066 28.6706C18.2771 28.3546 18.2103 28.0158 18.2103 27.6737C18.2103 27.3316 18.2771 26.9928 18.4066 26.6768C18.5362 26.3608 18.7259 26.0738 18.9652 25.8321C19.2045 25.5905 19.4886 25.399 19.8011 25.2685C20.1137 25.1381 20.4485 25.0713 20.7866 25.072C21.2477 25.0741 21.6997 25.2017 22.0954 25.4414C22.491 25.681 22.8158 26.024 23.0354 26.4343C24.4445 25.9815 25.7296 25.2022 26.7888 24.1585C26.5776 23.9929 26.3612 23.8326 26.1447 23.683C25.5068 23.2473 24.8257 22.8802 24.1124 22.5878C22.9717 23.4628 21.5792 23.9357 20.1478 23.9341C18.7461 23.9353 17.3807 23.4823 16.2518 22.6413C15.5784 22.933 14.9348 23.2909 14.3303 23.7097C12.5562 24.9473 11.1344 26.6348 10.2074 28.6033C10.0933 28.849 10.0338 29.1171 10.0331 29.3886C10.035 29.714 10.1129 30.0343 10.2602 30.3235C10.3923 30.5899 10.5952 30.8138 10.8461 30.9699C12.1297 31.6947 13.5228 32.2001 14.9691 32.4658C16.7065 32.8228 18.4752 33.0018 20.2481 33C22.021 33.0015 23.7896 32.8225 25.5271 32.4658C26.9726 32.1999 28.3654 31.6964 29.6501 30.9753C29.9047 30.8041 30.1129 30.5713 30.2558 30.2979C30.3987 30.0245 30.4718 29.7192 30.4684 29.41C30.4648 29.1313 30.4036 28.8566 30.2888 28.6033L30.2677 28.5766Z" fill="white"/>
<path d="M16.5951 20.8409C17.0607 21.3144 17.6144 21.6899 18.2242 21.9457C18.8339 22.2016 19.4878 22.3326 20.1479 22.3314C20.8081 22.3338 21.4623 22.2033 22.0722 21.9474C22.6821 21.6915 23.2357 21.3154 23.7006 20.8409C24.1695 20.3704 24.5411 19.8102 24.7939 19.193C25.0468 18.5757 25.1759 17.9137 25.1735 17.2455C25.1747 16.5775 25.0452 15.9159 24.7924 15.2988C24.5396 14.6817 24.1685 14.1214 23.7006 13.6502C23.2357 13.1757 22.6821 12.7996 22.0722 12.5437C21.4623 12.2878 20.8081 12.1573 20.1479 12.1597C19.4878 12.1585 18.8339 12.2895 18.2242 12.5454C17.6144 12.8012 17.0607 13.1767 16.5951 13.6502C16.1272 14.1214 15.7561 14.6817 15.5033 15.2988C15.2505 15.9159 15.121 16.5775 15.1222 17.2455C15.1198 17.9137 15.2488 18.5757 15.5016 19.193C15.7545 19.8102 16.1262 20.3704 16.5951 20.8409Z" fill="white"/>
<path d="M30.4208 21.8292C30.8913 21.8292 31.3571 21.7354 31.7917 21.553C32.2263 21.3707 32.621 21.1034 32.9535 20.7665C33.2859 20.4295 33.5495 20.0296 33.7291 19.5896C33.9086 19.1495 34.0007 18.6779 34 18.2018C33.9991 17.3335 33.6899 16.4944 33.1289 15.8374C32.5678 15.1804 31.7923 14.7493 30.9434 14.6225C30.3658 12.1653 28.9857 9.9772 27.0265 8.41239C25.0674 6.84758 22.6437 5.99759 20.1478 6.00001C17.6545 5.99971 15.2338 6.85002 13.2768 8.41359C11.3199 9.97716 9.9409 12.1627 9.36268 14.6171C8.45324 14.6729 7.59906 15.0775 6.97422 15.7486C6.34939 16.4196 6.00102 17.3065 6 18.2285C6 19.1897 6.37687 20.1115 7.04794 20.7916C7.71902 21.4717 8.62945 21.8545 9.5792 21.8559C9.79313 21.855 10.0041 21.8058 10.1968 21.7117C10.4923 21.5617 10.7381 21.3278 10.9042 21.0386C11.1435 20.6358 11.308 20.1923 11.3899 19.7297C11.4843 19.2351 11.5303 18.7323 11.5271 18.2285C11.5402 17.4754 11.426 16.7256 11.1893 16.0115C11.1013 15.7559 10.9767 15.5148 10.8197 15.2956C11.1991 13.4611 12.1001 11.7788 13.4118 10.4555C14.2954 9.55878 15.3453 8.84751 16.5012 8.36253C17.6572 7.87755 18.8965 7.6284 20.1478 7.6294C21.4001 7.6277 22.6402 7.87652 23.7971 8.36152C24.9541 8.84652 26.0049 9.55815 26.8892 10.4555C28.1325 11.7153 29.0044 13.3007 29.4073 15.0339C29.289 15.1494 29.1844 15.2784 29.0958 15.4185C28.8573 15.8235 28.6928 16.2687 28.6101 16.7327C28.5159 17.2255 28.4699 17.7266 28.4729 18.2285C28.4594 18.9817 28.5736 19.7315 28.8107 20.4456C28.8619 20.5864 28.9219 20.7238 28.9902 20.8569C28.6928 21.6155 28.3026 22.3334 27.8288 22.9939C27.681 23.1915 27.5332 23.3892 27.3748 23.5762L28.5731 24.6446C28.7262 24.463 28.8688 24.276 29.0061 24.1104C29.5197 23.4269 29.952 22.6845 30.2941 21.8987L30.4208 21.8292ZM9.95399 18.2018C9.96758 18.767 9.8873 19.3304 9.71646 19.8686C9.67335 19.9952 9.61096 20.1141 9.53164 20.2212C9.02342 20.2077 8.53967 19.9974 8.18018 19.6336C7.99369 19.4461 7.84592 19.223 7.74533 18.9772C7.64474 18.7314 7.5934 18.4679 7.59428 18.2018C7.59351 17.9366 7.64498 17.6739 7.74559 17.429C7.84619 17.1841 7.99385 16.9619 8.18018 16.7754C8.53967 16.4116 9.02342 16.2013 9.53164 16.1878C9.67889 16.408 9.77791 16.6575 9.82201 16.9197C9.91212 17.3409 9.95638 17.7709 9.95399 18.2018ZM30.4894 20.2212C30.3424 19.9989 30.2436 19.7476 30.1991 19.484C30.1135 19.0639 30.0711 18.636 30.0724 18.2071C30.0615 17.6439 30.1417 17.0827 30.31 16.5457C30.3531 16.4192 30.4153 16.3002 30.4946 16.1931C31.0029 16.2066 31.4866 16.417 31.8461 16.7808C32.0324 16.9673 32.1802 17.1894 32.2808 17.4343C32.3814 17.6792 32.4329 17.9419 32.4321 18.2071C32.433 18.4732 32.3817 18.7367 32.2811 18.9825C32.1805 19.2283 32.0326 19.4514 31.8461 19.6389C31.4818 20.0045 30.9918 20.2132 30.4788 20.2212H30.4894Z" fill="white"/>
<path d="M19.794 27.6737C19.7954 27.9392 19.9006 28.1933 20.0866 28.3804C20.2726 28.5676 20.5243 28.6727 20.7866 28.6727C21.0484 28.6727 21.2995 28.5675 21.4846 28.3801C21.6697 28.1928 21.7737 27.9387 21.7737 27.6737C21.7737 27.4088 21.6697 27.1547 21.4846 26.9673C21.2995 26.78 21.0484 26.6747 20.7866 26.6747C20.5243 26.6747 20.2726 26.7798 20.0866 26.967C19.9006 27.1542 19.7954 27.4083 19.794 27.6737Z" fill="white"/>
</svg>
