<svg width="32" height="22" viewBox="0 0 32 22" fill="none" xmlns="http://www.w3.org/2000/svg">
<path d="M28.1046 6.1985C27.3182 6.91287 26.3011 7.30744 25.2473 7.30687C24.2088 7.30798 23.2048 6.9271 22.4201 6.23439C21.8556 6.50179 21.33 6.84712 20.858 7.26064C20.8825 7.44774 20.8942 7.63638 20.8932 7.82513C20.8932 8.6959 20.671 9.5517 20.2483 10.3086C22.1236 11.2591 23.6394 12.8116 24.5619 14.7266C24.8088 14.7266 25.0658 14.7266 25.2976 14.7266C26.321 14.7279 27.3427 14.6404 28.3515 14.4649V11.576C28.3515 11.3719 28.4312 11.1761 28.5729 11.0318C28.7147 10.8874 28.9069 10.8063 29.1074 10.8063C29.3079 10.8063 29.5002 10.8874 29.642 11.0318C29.7837 11.1761 29.8633 11.3719 29.8633 11.576V14.0955C30.3243 13.9511 30.7661 13.7495 31.1786 13.4951C31.4847 13.3202 31.7375 13.0628 31.9093 12.7511C31.969 12.6264 32 12.4895 32 12.3508C32.0018 11.4542 31.8296 10.566 31.4932 9.73737C31.1568 8.90873 30.6628 8.15595 30.0397 7.52234C29.4745 6.97072 28.8198 6.52286 28.1046 6.1985Z" fill="#B3A0FF"/>
<path d="M25.2322 5.74693C25.6009 5.7474 25.9662 5.6738 26.3069 5.53027C26.6476 5.38675 26.9571 5.17612 27.2177 4.91054C27.4787 4.64533 27.6857 4.33016 27.8267 3.9832C27.9677 3.63623 28.0399 3.26435 28.0392 2.88887C28.0434 2.50829 27.9728 2.1307 27.8317 1.77825C27.6907 1.42579 27.4819 1.10557 27.2177 0.836374C26.6848 0.315007 25.9712 0.0291181 25.2322 0.041008C24.8584 0.0367388 24.4876 0.108532 24.1414 0.252158C23.7953 0.395783 23.4808 0.608352 23.2165 0.877401C22.9522 1.1466 22.7435 1.46682 22.6024 1.81928C22.4614 2.17173 22.3909 2.54932 22.3951 2.92989C22.3944 3.30538 22.4665 3.67732 22.6075 4.02429C22.7484 4.37125 22.9554 4.68636 23.2165 4.95157C23.4841 5.21322 23.8001 5.41825 24.1461 5.55476C24.4921 5.69128 24.8613 5.75661 25.2322 5.74693Z" fill="#B3A0FF"/>
<path d="M6.70239 14.7472C6.94932 14.7472 7.2063 14.7472 7.43812 14.7472C8.34472 12.8669 9.82201 11.3339 11.6511 10.3753C11.2121 9.60722 10.9808 8.73433 10.9808 7.84561C10.9832 7.62255 10.9984 7.39985 11.0262 7.17859C10.568 6.78255 10.0595 6.45115 9.51439 6.19337C8.72625 6.90808 7.70734 7.3026 6.65194 7.30173C5.61502 7.30253 4.61283 6.92167 3.82997 6.22932C3.13873 6.5611 2.50819 7.01053 1.96543 7.55829C1.34165 8.19165 0.846877 8.94427 0.5096 9.77289C0.172323 10.6015 -0.00088601 11.4898 3.40801e-06 12.3868C0.00174701 12.5259 0.0345798 12.6627 0.0958449 12.787C0.172575 12.9448 0.278623 13.086 0.408222 13.2026C0.827296 13.5699 1.31378 13.849 1.83945 14.0236L2.01575 14.0852V11.612C2.01575 11.4078 2.09545 11.2121 2.23721 11.0677C2.37897 10.9234 2.57118 10.8423 2.77166 10.8423C2.97213 10.8423 3.16447 10.9234 3.30623 11.0677C3.44799 11.2121 3.52756 11.4078 3.52756 11.612V14.4803C4.57589 14.6656 5.63842 14.7549 6.70239 14.7472Z" fill="#B3A0FF"/>
<path d="M6.64707 5.74697C7.01592 5.74829 7.38129 5.67501 7.72212 5.53144C8.06295 5.38786 8.37243 5.17685 8.63256 4.91058C8.89542 4.64648 9.10383 4.33163 9.24574 3.98449C9.38765 3.63735 9.46015 3.26492 9.45896 2.8889C9.46334 2.50785 9.39252 2.12975 9.25054 1.77716C9.10856 1.42456 8.89839 1.10466 8.63256 0.83641C8.37243 0.570142 8.06295 0.359063 7.72212 0.215489C7.38129 0.0719151 7.01592 -0.00129957 6.64707 1.74574e-05C6.27831 -0.0007341 5.91302 0.0727617 5.57227 0.216303C5.23152 0.359845 4.92193 0.570601 4.66147 0.83641C4.39724 1.10561 4.18847 1.42583 4.04742 1.77828C3.90636 2.13074 3.83592 2.50833 3.84011 2.8889C3.83937 3.26439 3.91149 3.63627 4.05246 3.98324C4.19344 4.3302 4.40042 4.64537 4.66147 4.91058C4.92193 5.17639 5.23152 5.38714 5.57227 5.53068C5.91302 5.67423 6.27831 5.74772 6.64707 5.74697Z" fill="#B3A0FF"/>
<path d="M21.7046 13.2231C21.0137 12.5201 20.2025 11.9515 19.3109 11.5453C18.3986 12.4037 17.202 12.8801 15.9598 12.8794C14.7403 12.879 13.5642 12.4183 12.659 11.5863C11.7996 11.9895 11.0166 12.5435 10.3459 13.2231C9.59767 13.9808 9.00449 14.8821 8.60054 15.8747C8.19659 16.8673 7.98992 17.9316 7.99252 19.006C7.9941 19.1842 8.03546 19.3597 8.11345 19.5192C8.21458 19.7133 8.34949 19.8872 8.51159 20.0323C9.02059 20.4754 9.60934 20.8135 10.2451 21.0278L10.749 21.1971V17.9952C10.749 17.7911 10.8286 17.5953 10.9704 17.4509C11.1121 17.3066 11.3045 17.2255 11.5049 17.2255C11.7054 17.2255 11.8976 17.3066 12.0394 17.4509C12.1811 17.5953 12.2608 17.7911 12.2608 17.9952V21.5871C13.5044 21.8178 14.7662 21.9312 16.0303 21.9257C17.2515 21.9269 18.4705 21.8205 19.6737 21.6076V18.0157C19.6737 17.8116 19.7534 17.6158 19.8952 17.4715C20.037 17.3271 20.2292 17.2461 20.4296 17.2461C20.6301 17.2461 20.8225 17.3271 20.9642 17.4715C21.106 17.6158 21.1855 17.8116 21.1855 18.0157V21.2535C21.8342 21.0739 22.455 20.8028 23.0299 20.4479C23.4128 20.2307 23.7287 19.909 23.9421 19.5192C24.0201 19.3597 24.0614 19.1842 24.063 19.006C24.0649 17.9312 23.8575 16.8667 23.4526 15.8741C23.0478 14.8814 22.4537 13.9804 21.7046 13.2231Z" fill="#B3A0FF"/>
<path d="M12.4926 7.83026C12.4915 8.29069 12.58 8.74674 12.753 9.17214C12.926 9.59754 13.18 9.98382 13.5005 10.3086C13.8197 10.6347 14.199 10.8933 14.6168 11.0694C15.0345 11.2455 15.4824 11.3358 15.9346 11.3349C16.3875 11.3362 16.8362 11.2462 17.2548 11.07C17.6734 10.8939 18.0536 10.6351 18.3735 10.3086C18.694 9.98382 18.9482 9.59754 19.1212 9.17214C19.2942 8.74674 19.3826 8.29069 19.3814 7.83026C19.3826 7.36984 19.2942 6.91372 19.1212 6.48833C18.9482 6.06293 18.694 5.67664 18.3735 5.35184C17.7261 4.69432 16.849 4.32523 15.9346 4.32559C15.0218 4.32603 14.1464 4.6951 13.5005 5.35184C13.18 5.67664 12.926 6.06293 12.753 6.48833C12.58 6.91372 12.4915 7.36984 12.4926 7.83026Z" fill="#B3A0FF"/>
</svg>
