<svg width="29" height="32" viewBox="0 0 29 32" fill="none" xmlns="http://www.w3.org/2000/svg">
<path d="M23.9605 26.2714C23.3185 26.4342 22.6589 26.5185 21.9965 26.5222C19.8703 26.5222 17.8312 25.6789 16.3277 24.1777C14.8243 22.6766 13.9796 20.6405 13.9796 18.5176C13.9788 17.4662 14.1856 16.425 14.5882 15.4535C14.9908 14.4819 15.5812 13.5992 16.3258 12.8557C17.0704 12.1122 17.9546 11.5227 18.9276 11.1207C19.9007 10.7188 20.9435 10.5123 21.9965 10.5131C22.6592 10.5137 23.3191 10.5979 23.9605 10.7639V5.71044C23.962 5.04814 23.7003 4.41229 23.2328 3.94238C23.0007 3.70954 22.7248 3.52492 22.4208 3.39912C22.1169 3.27332 21.791 3.20883 21.462 3.20943H19.6334C19.6334 3.20943 19.6334 3.20939 19.6334 3.2544V5.78116C19.6215 6.42178 19.356 7.03163 18.8951 7.47741C18.4342 7.92319 17.8152 8.16858 17.1735 8.15998H7.01875C6.70079 8.16508 6.38488 8.10764 6.08917 7.99085C5.79347 7.87405 5.52369 7.7002 5.29527 7.47929C5.06685 7.25839 4.88428 6.99479 4.75793 6.70341C4.63158 6.41204 4.56394 6.09863 4.5589 5.78116V3.2544C4.5589 3.2544 4.5589 3.25443 4.5589 3.20943H2.50481C2.1757 3.20812 1.84955 3.27226 1.54552 3.3981C1.24149 3.52394 0.96567 3.70896 0.734009 3.94238C0.264202 4.41124 0.000220419 5.04722 0 5.71044V29.499C0.000220419 30.1622 0.264202 30.7982 0.734009 31.267C0.96567 31.5004 1.24149 31.6855 1.54552 31.8113C1.84955 31.9371 2.1757 32.0013 2.50481 32H21.4491C21.7781 32.0006 22.104 31.9361 22.4079 31.8103C22.7119 31.6845 22.9878 31.4999 23.2199 31.267C23.6874 30.7971 23.9491 30.1613 23.9476 29.499L23.9605 26.2714ZM3.42558 10.5131H13.1618C13.418 10.5131 13.6636 10.6147 13.8448 10.7956C14.0259 10.9765 14.1277 11.2218 14.1277 11.4775C14.1277 11.7333 14.0259 11.9786 13.8448 12.1595C13.6636 12.3403 13.418 12.4419 13.1618 12.4419H3.42558C3.16941 12.4419 2.92381 12.3403 2.74267 12.1595C2.56153 11.9786 2.45969 11.7333 2.45969 11.4775C2.46475 11.2251 2.56883 10.9848 2.74943 10.8081C2.93002 10.6314 3.17272 10.5324 3.42558 10.5324V10.5131ZM3.42558 16.9939H8.29372C8.54989 16.9939 8.79565 17.0955 8.97679 17.2764C9.15793 17.4573 9.25961 17.7025 9.25961 17.9583C9.25961 18.214 9.15793 18.4593 8.97679 18.6402C8.79565 18.8211 8.54989 18.9227 8.29372 18.9227H3.42558C3.16941 18.9227 2.92381 18.8211 2.74267 18.6402C2.56153 18.4593 2.45969 18.214 2.45969 17.9583C2.46475 17.7059 2.56883 17.4655 2.74943 17.2888C2.93002 17.1121 3.17272 17.0131 3.42558 17.0132V16.9939ZM13.1618 25.4035H3.42558C3.16941 25.4035 2.92381 25.3019 2.74267 25.121C2.56153 24.9402 2.45969 24.6949 2.45969 24.4391C2.45969 24.1833 2.56153 23.938 2.74267 23.7571C2.92381 23.5763 3.16941 23.4747 3.42558 23.4747H13.1618C13.418 23.4747 13.6636 23.5763 13.8448 23.7571C14.0259 23.938 14.1277 24.1833 14.1277 24.4391C14.1303 24.5673 14.1072 24.6948 14.0598 24.8141C14.0124 24.9333 13.9416 25.0419 13.8517 25.1335C13.7617 25.2251 13.6545 25.2979 13.536 25.3475C13.4175 25.3972 13.2903 25.4228 13.1618 25.4228V25.4035Z" fill="#B3A0FF"/>
<path d="M7.44369 2.48289C7.211 2.46687 6.98141 2.54284 6.80432 2.6944C6.62723 2.84596 6.51686 3.06094 6.49713 3.29299V5.81967C6.50862 5.94877 6.57039 6.06829 6.66912 6.15244C6.76784 6.23659 6.8957 6.2787 7.0252 6.26977H17.18C17.3095 6.2787 17.4373 6.23659 17.536 6.15244C17.6348 6.06829 17.6965 5.94877 17.708 5.81967V3.29299C17.6883 3.06094 17.5779 2.84596 17.4008 2.6944C17.2237 2.54284 16.994 2.46687 16.7613 2.48289C16.5276 2.49884 16.2972 2.42201 16.1199 2.2691C15.9426 2.11619 15.8329 1.89955 15.8147 1.66635V0.451198C15.8049 0.322651 15.7445 0.203201 15.6468 0.118901C15.5492 0.0346015 15.4221 -0.00768389 15.2933 0.00117669H8.91186C8.78236 -0.00774822 8.65451 0.0343607 8.55578 0.118509C8.45706 0.202657 8.39529 0.322102 8.3838 0.451198V1.66635C8.36729 1.899 8.25914 2.11564 8.0829 2.26871C7.90666 2.42178 7.67673 2.49879 7.44369 2.48289Z" fill="#B3A0FF"/>
<path d="M26.2979 22.8318C26.8648 22.2691 27.3144 21.5999 27.6205 20.8627C27.9267 20.1255 28.0834 19.335 28.0816 18.5369C28.0839 17.7379 27.9273 16.9463 27.6211 16.208C27.315 15.4697 26.8653 14.7994 26.2979 14.2358C25.7339 13.6709 25.0634 13.2233 24.3251 12.9187C23.5868 12.6142 22.7954 12.4587 21.9965 12.4613C21.1978 12.4594 20.4066 12.6151 19.6684 12.9197C18.9302 13.2242 18.2596 13.6715 17.6951 14.2358C17.1289 14.8002 16.6799 15.4707 16.3738 16.2088C16.0677 16.9469 15.9106 17.7381 15.9114 18.5369C15.9111 19.3348 16.0685 20.1248 16.3746 20.8618C16.6807 21.5988 17.1294 22.2683 17.6951 22.8318C18.2593 23.3969 18.9296 23.8451 19.6678 24.1507C20.406 24.4564 21.1974 24.6134 21.9965 24.6127C22.7958 24.6141 23.5873 24.4574 24.3256 24.1518C25.0639 23.8461 25.7342 23.3975 26.2979 22.8318ZM25.4416 16.9425L21.6423 21.0701C21.4723 21.2562 21.2358 21.3678 20.9839 21.3811C20.7321 21.3943 20.4851 21.308 20.2965 21.1408L18.7124 19.7521C18.616 19.6691 18.5371 19.5678 18.4802 19.454C18.4234 19.3402 18.3897 19.2163 18.3813 19.0895C18.373 18.9626 18.39 18.8353 18.4313 18.7151C18.4727 18.5948 18.5376 18.484 18.6223 18.3891C18.791 18.198 19.0285 18.0813 19.2831 18.0644C19.5377 18.0475 19.7885 18.1319 19.9809 18.2991L20.8568 19.0706L24.0184 15.6373C24.1042 15.544 24.2077 15.4685 24.3227 15.415C24.4378 15.3616 24.5623 15.3313 24.689 15.326C24.8158 15.3206 24.9423 15.3402 25.0615 15.3837C25.1806 15.4272 25.2902 15.4937 25.3836 15.5795C25.4771 15.6651 25.5527 15.7684 25.6062 15.8833C25.6597 15.9981 25.69 16.1224 25.6953 16.249C25.7007 16.3756 25.681 16.5019 25.6375 16.6209C25.5939 16.7399 25.5275 16.8492 25.4416 16.9425Z" fill="#B3A0FF"/>
</svg>
