<svg width="32" height="32" viewBox="0 0 32 32" fill="none" xmlns="http://www.w3.org/2000/svg">
<path d="M18.6626 11.6669L11.8438 18.4845L13.5978 20.2382L20.4167 13.4206L18.6626 11.6669Z" fill="#E2F163"/>
<path d="M12.1675 30.301C12.2287 30.2427 12.2772 30.1724 12.3103 30.0946C12.3433 30.0168 12.3602 29.933 12.3596 29.8484C12.3602 29.7638 12.3433 29.6801 12.3103 29.6022C12.2772 29.5244 12.2287 29.4541 12.1675 29.3958L2.60468 19.8287C2.54579 19.7686 2.47539 19.7211 2.39756 19.6891C2.31973 19.6572 2.23612 19.6413 2.15198 19.6427C2.06785 19.6413 1.98438 19.6572 1.90656 19.6891C1.82873 19.7211 1.75817 19.7686 1.69928 19.8287L0.186152 21.3416C0.126051 21.4004 0.0785421 21.4709 0.0465578 21.5487C0.0145735 21.6266 -0.00124733 21.7101 7.67493e-05 21.7942C-0.00124733 21.8783 0.0145735 21.9618 0.0465578 22.0396C0.0785421 22.1174 0.126051 22.1879 0.186152 22.2468L9.75504 31.8139C9.81393 31.874 9.88448 31.9215 9.96231 31.9535C10.0401 31.9854 10.1236 32.0012 10.2077 31.9999C10.377 31.9985 10.5391 31.9319 10.6604 31.8139L12.1675 30.301Z" fill="#E2F163"/>
<path d="M18.2449 27.8209C18.2437 27.6255 18.1659 27.4384 18.0279 27.3001L4.70088 13.9756C4.63201 13.906 4.54978 13.8509 4.45924 13.8136C4.36869 13.7764 4.27161 13.7576 4.17369 13.7585C4.07671 13.7577 3.98054 13.7766 3.89102 13.8139C3.8015 13.8511 3.72043 13.9062 3.65271 13.9756L2.04041 15.5938C1.9704 15.6611 1.91499 15.7421 1.87765 15.8317C1.84031 15.9213 1.82176 16.0176 1.82329 16.1147C1.82249 16.2116 1.84141 16.3077 1.87871 16.3972C1.91601 16.4867 1.97098 16.5678 2.04041 16.6355L15.3674 29.96C15.4352 30.0294 15.5162 30.0844 15.6058 30.1217C15.6953 30.159 15.7914 30.1778 15.8884 30.177C15.9855 30.1785 16.0818 30.1601 16.1714 30.1227C16.261 30.0854 16.342 30.03 16.4093 29.96L18.0279 28.3417C18.0968 28.2736 18.1514 28.1925 18.1887 28.1031C18.226 28.0137 18.245 27.9177 18.2449 27.8209Z" fill="#E2F163"/>
<path d="M29.3952 12.1713C29.4541 12.2314 29.5246 12.2788 29.6024 12.3108C29.6803 12.3428 29.7637 12.3586 29.8479 12.3573C29.932 12.3586 30.0156 12.3428 30.0934 12.3108C30.1713 12.2788 30.2418 12.2314 30.3007 12.1713L31.8138 10.6584C31.8739 10.5995 31.9215 10.529 31.9534 10.4512C31.9854 10.3734 32.0012 10.2899 31.9999 10.2057C32.0012 10.1216 31.9854 10.0381 31.9534 9.96031C31.9215 9.8825 31.8739 9.81202 31.8138 9.75314L22.251 0.192221C22.1927 0.131009 22.1225 0.0823771 22.0447 0.0493223C21.9668 0.0162675 21.8829 -0.000510169 21.7983 1.1816e-05C21.7137 -0.000510169 21.63 0.0162675 21.5521 0.0493223C21.4743 0.0823771 21.404 0.131009 21.3456 0.192221L19.8325 1.6989C19.7724 1.75778 19.7249 1.82828 19.6929 1.90609C19.6609 1.9839 19.6451 2.06741 19.6464 2.15153C19.6451 2.23564 19.6609 2.31915 19.6929 2.39696C19.7249 2.47478 19.7724 2.54528 19.8325 2.60416L29.3952 12.1713Z" fill="#E2F163"/>
<path d="M29.9659 16.4123C30.1016 16.2729 30.1772 16.086 30.1767 15.8915C30.1782 15.695 30.1026 15.5057 29.9659 15.3644L16.6327 2.01513C16.5646 1.94628 16.4834 1.89166 16.3939 1.8544C16.3045 1.81715 16.2086 1.79801 16.1117 1.79811C15.9163 1.79926 15.7291 1.87722 15.5907 2.01513L14.1459 3.45979C14.0779 3.52823 14.0242 3.60956 13.988 3.69899C13.9518 3.78842 13.9337 3.88417 13.935 3.98064C13.9338 4.17526 14.0097 4.36245 14.1459 4.50146L27.4791 17.826C27.5464 17.896 27.6274 17.9514 27.717 17.9887C27.8066 18.026 27.9029 18.0445 28 18.043C28.0969 18.0438 28.1931 18.025 28.2826 17.9877C28.3722 17.9504 28.4532 17.8954 28.5209 17.826L29.9659 16.4123Z" fill="#E2F163"/>
</svg>
