<svg width="31" height="32" viewBox="0 0 31 32" fill="none" xmlns="http://www.w3.org/2000/svg">
<path d="M16.3393 18.8271C16.3385 17.795 16.5391 16.7728 16.9295 15.8191C17.32 14.8653 17.8926 13.9988 18.6147 13.269C19.3369 12.5391 20.1944 11.9603 21.1381 11.5657C22.0817 11.1711 23.0931 10.9685 24.1143 10.9693C24.5815 10.9716 25.0476 11.0159 25.507 11.1019C25.3162 10.7871 25.1077 10.4836 24.8825 10.193C22.8216 7.66837 19.2183 5.72447 16.3331 8.17964C16.0757 8.41135 15.8317 8.65793 15.6025 8.91811C14.9591 9.75284 14.4122 10.6591 13.9725 11.6194C13.9196 11.7317 13.8454 11.8324 13.754 11.9158C13.6626 11.9991 13.5559 12.0634 13.4399 12.1051C13.3239 12.1467 13.2009 12.1647 13.078 12.1583C12.955 12.1518 12.8346 12.1211 12.7235 12.0675C12.6123 12.0141 12.5127 11.9391 12.4303 11.8467C12.3478 11.7544 12.2841 11.6465 12.2429 11.5292C12.2017 11.412 12.1839 11.2877 12.1903 11.1635C12.1967 11.0393 12.2271 10.9175 12.2801 10.8052C12.3363 10.6853 12.3925 10.578 12.455 10.4644C10.8862 10.4161 9.33208 10.1419 7.83984 9.65018C6.71682 9.26878 5.66234 8.70608 4.71733 7.98394C3.76481 8.56912 2.91967 9.31649 2.21933 10.193C-0.441037 13.4876 -0.44727 17.6216 0.826711 21.5536V21.642C2.12567 25.5741 4.84231 30.7748 9.1701 31.854C9.8935 32.0213 10.645 32.0213 11.3684 31.854C12.1989 31.6773 12.8671 31.0588 13.7726 31.1661C14.4408 31.2418 15.0216 31.6836 15.6461 31.8603C16.3757 32.0466 17.1397 32.0466 17.8693 31.8603C20.4423 31.2292 22.4406 29.1211 23.9207 26.6975C21.8892 26.6496 19.9572 25.7985 18.5397 24.327C17.1222 22.8555 16.3323 20.8808 16.3393 18.8271Z" fill="#B3A0FF"/>
<path d="M7.24655 7.32763C8.94952 8.13663 10.8043 8.56707 12.6859 8.58992C12.5753 7.96904 12.406 7.36034 12.1802 6.77221C11.4038 4.69014 9.95044 2.93646 8.05843 1.79876C6.37262 0.814095 4.4997 0.201093 2.5628 0C2.64528 1.00889 2.87471 1.9999 3.24356 2.9411C3.98587 4.8592 5.41475 6.42506 7.24655 7.32763Z" fill="#B3A0FF"/>
<path d="M28.3109 23.0243C28.8596 22.4712 29.2948 21.814 29.5916 21.0905C29.8885 20.367 30.0411 19.5914 30.0408 18.8082C30.0416 18.024 29.8893 17.2473 29.5924 16.5228C29.2956 15.7982 28.86 15.14 28.3109 14.5859C27.7635 14.0319 27.1131 13.5928 26.3972 13.2939C25.6813 12.9949 24.9139 12.842 24.1393 12.8439C23.3637 12.8419 22.5954 12.9947 21.8784 13.2937C21.1614 13.5926 20.51 14.0318 19.9614 14.5859C19.4064 15.1404 18.966 15.801 18.6658 16.5291C18.3656 17.2572 18.2116 18.0384 18.2128 18.8272C18.2117 19.6099 18.3633 20.3852 18.6591 21.1087C18.9548 21.8321 19.3889 22.4896 19.9364 23.0433C20.4847 23.5982 21.136 24.0383 21.8529 24.3383C22.5699 24.6383 23.3383 24.7923 24.1143 24.7915C24.8948 24.793 25.6678 24.6375 26.3883 24.3341C27.1088 24.0307 27.7624 23.5855 28.3109 23.0243ZM23.7958 21.295C23.6299 21.478 23.3995 21.5878 23.1542 21.6008C22.9089 21.6138 22.6684 21.5289 22.4845 21.3644L20.9481 20.0011C20.762 19.8347 20.6485 19.6008 20.6321 19.3502C20.6158 19.0997 20.6979 18.8527 20.8607 18.663C21.0254 18.475 21.2568 18.3603 21.5047 18.3438C21.7526 18.3272 21.997 18.4102 22.1847 18.5747L23.0339 19.3321L26.1002 15.9617C26.1829 15.8703 26.2826 15.7963 26.3937 15.744C26.5047 15.6916 26.625 15.6619 26.7474 15.6566C26.8698 15.6513 26.9921 15.6706 27.1072 15.7132C27.2223 15.7558 27.3279 15.821 27.4179 15.9049C27.5086 15.989 27.5819 16.0904 27.6338 16.2032C27.6857 16.3159 27.7151 16.4379 27.7203 16.5622C27.7255 16.6865 27.7066 16.8105 27.6643 16.9273C27.6221 17.0441 27.5575 17.1514 27.4742 17.243L23.7958 21.295Z" fill="#B3A0FF"/>
</svg>
