<svg width="15" height="15" viewBox="0 0 15 15" fill="none" xmlns="http://www.w3.org/2000/svg">
<g clip-path="url(#clip0_3186_4759)">
<path d="M13.9365 4.3638L11.0974 3.66574C10.7463 3.57825 10.4425 3.36364 10.2476 3.06547L8.68986 0.644173C8.56515 0.445452 8.38988 0.281664 8.18104 0.168782C7.97221 0.0559005 7.73695 -0.00222601 7.49826 6.52061e-05C7.26015 -0.0016422 7.02568 0.0567619 6.8175 0.169616C6.60932 0.28247 6.43452 0.445944 6.31011 0.644173L4.74891 3.06547C4.55615 3.36415 4.25321 3.57905 3.9027 3.66574L1.06355 4.3638C0.832598 4.42041 0.620124 4.53336 0.446121 4.69206C0.272117 4.85077 0.142301 5.05004 0.0687642 5.27116C-0.00477253 5.49228 -0.0196471 5.72802 0.0256739 5.95625C0.0709948 6.18449 0.174968 6.39775 0.327812 6.57602L2.20338 8.77138C2.43526 9.04244 2.55148 9.39018 2.52803 9.7426L2.33113 12.5956C2.31839 12.7832 2.34515 12.9714 2.40981 13.1485C2.47446 13.3256 2.57564 13.4879 2.70705 13.6254C2.83847 13.7629 2.99735 13.8726 3.17388 13.9478C3.35041 14.0229 3.54087 14.062 3.73346 14.0625C3.9132 14.0624 4.09132 14.0292 4.25847 13.9647L6.9767 12.8991C7.14287 12.8353 7.31971 12.8021 7.49826 12.8013C7.67796 12.8018 7.856 12.8349 8.02327 12.8991L10.7416 13.9647C10.9087 14.0292 11.0869 14.0624 11.2666 14.0625C11.4592 14.062 11.6496 14.0229 11.8261 13.9478C12.0026 13.8726 12.1615 13.7629 12.2929 13.6254C12.4243 13.4879 12.5255 13.3256 12.5902 13.1485C12.6548 12.9714 12.6816 12.7832 12.6688 12.5956L12.472 9.7426C12.4486 9.39018 12.5648 9.04244 12.7967 8.77138L14.6722 6.57602C14.825 6.39775 14.929 6.18449 14.9743 5.95625C15.0196 5.72802 15.0048 5.49228 14.9313 5.27116C14.8578 5.05004 14.7279 4.85077 14.5539 4.69206C14.3798 4.53336 14.1675 4.42041 13.9365 4.3638Z" fill="#E2F163"/>
</g>
<defs>
<clipPath id="clip0_3186_4759">
<rect width="15" height="15" fill="white"/>
</clipPath>
</defs>
</svg>
