<svg width="40" height="40" viewBox="0 0 40 40" fill="none" xmlns="http://www.w3.org/2000/svg">
<circle cx="20" cy="20" r="20" fill="#896CFE"/>
<path d="M11.6387 18.9906L19.2488 18.9906L16.9965 17.263C16.7882 17.1031 16.6512 16.8663 16.6156 16.6044C16.58 16.3426 16.6489 16.0772 16.8069 15.8666C16.885 15.762 16.9828 15.674 17.0947 15.6077C17.2066 15.5414 17.3304 15.4982 17.4589 15.4804C17.5874 15.4626 17.7182 15.4706 17.8436 15.5041C17.969 15.5375 18.0867 15.5956 18.1898 15.6751L22.7811 19.1941L22.8167 19.226C22.8528 19.2572 22.8871 19.2905 22.9194 19.3258L22.9668 19.3856C22.9941 19.4226 23.0192 19.4612 23.0419 19.5013L23.0775 19.5651C23.0987 19.6127 23.1159 19.6622 23.1288 19.7127L23.1288 19.7686C23.1428 19.8409 23.1507 19.9143 23.1525 19.988C23.1507 20.0604 23.1428 20.1325 23.1288 20.2035L23.1288 20.2593C23.1159 20.3099 23.0987 20.3593 23.0775 20.407L23.0419 20.4708C23.0192 20.5108 22.9941 20.5495 22.9668 20.5865L22.9194 20.6463C22.8882 20.6826 22.8538 20.716 22.8167 20.746L22.7811 20.782L18.1898 24.2969C18.0191 24.4303 17.809 24.5019 17.5932 24.5004C17.4398 24.5007 17.2884 24.4648 17.1512 24.3955C17.014 24.3262 16.8947 24.2256 16.8029 24.1015C16.6449 23.8908 16.5761 23.6254 16.6117 23.3636C16.6473 23.1018 16.7842 22.865 16.9926 22.705L19.2448 20.9815L11.6348 20.9815L11.6348 28.5619C11.6348 30.0042 12.2021 31.3874 13.2121 32.4072C14.2221 33.427 15.5919 34 17.0203 34L24.6224 34C25.3291 33.9995 26.0288 33.8583 26.6815 33.5848C27.3342 33.3112 27.9272 32.9105 28.4266 32.4056C28.9259 31.9006 29.3219 31.3012 29.5919 30.6417C29.8618 29.9823 30.0005 29.2755 30 28.5619L30 11.4341C30.0005 10.7206 29.8618 10.0141 29.5918 9.35484C29.3217 8.69558 28.9257 8.09655 28.4263 7.5919C27.9269 7.08725 27.3339 6.68691 26.6812 6.41378C26.0285 6.14064 25.3289 6 24.6224 6L17.0203 6C15.5926 6 14.2234 6.57245 13.2135 7.59141C12.2036 8.61037 11.6358 9.9925 11.6348 11.4341L11.6348 16.1499L11.6387 18.9906ZM25.2111 11.4101C25.2106 11.279 25.2358 11.149 25.2853 11.0278C25.3347 10.9065 25.4074 10.7963 25.4993 10.7036C25.5911 10.6109 25.7002 10.5374 25.8203 10.4875C25.9404 10.4375 26.0691 10.4121 26.1989 10.4127C26.3288 10.4121 26.4575 10.4375 26.5776 10.4875C26.6976 10.5374 26.8068 10.6109 26.8986 10.7036C26.9904 10.7963 27.0631 10.9065 27.1126 11.0278C27.1621 11.149 27.1873 11.279 27.1867 11.4101L27.1867 28.6059C27.1867 28.8704 27.0826 29.124 26.8974 29.3111C26.7121 29.4981 26.4609 29.6033 26.1989 29.6033C25.9369 29.6033 25.6857 29.4981 25.5004 29.3111C25.3152 29.124 25.2111 28.8704 25.2111 28.6059L25.2111 11.4101Z" fill="white"/>
<path d="M7.9878 20.9854L11.6348 20.9854C11.8967 20.9854 12.148 20.8804 12.3332 20.6933C12.5185 20.5063 12.6226 20.2526 12.6226 19.988C12.6226 19.7235 12.5185 19.4698 12.3332 19.2827C12.148 19.0956 11.8967 18.9906 11.6348 18.9906L7.9878 18.9906C7.72582 18.9906 7.47455 19.0956 7.2893 19.2827C7.10405 19.4698 7 19.7235 7 19.988C7 20.2526 7.10405 20.5063 7.2893 20.6933C7.47455 20.8804 7.72582 20.9854 7.9878 20.9854Z" fill="white"/>
</svg>
