<svg width="7" height="9" viewBox="0 0 7 9" fill="none" xmlns="http://www.w3.org/2000/svg">
<path d="M1.56995 2.2901C1.96297 1.73694 2.3339 1.23356 2.4581 0.614013C2.4581 0.614013 2.4581 0.614014 2.4581 0.601106C2.3306 0.456209 2.18447 0.332004 2.02424 0.232329C2.0087 0.220701 1.9906 0.213657 1.97178 0.21189C1.95296 0.210122 1.93403 0.213692 1.91687 0.222248C1.89971 0.230804 1.88493 0.244053 1.87392 0.260691C1.86291 0.27733 1.85608 0.296786 1.85411 0.317149C1.83572 0.434091 1.81127 0.549822 1.78092 0.663798C1.72769 0.85291 1.64483 1.03068 1.53593 1.18931C1.33177 1.48617 1.07997 1.75353 0.855392 2.03565C0.321166 2.70867 -0.0888501 3.54026 0.0166341 4.45482C0.0477602 4.72803 0.125671 4.99255 0.246334 5.23479C0.376535 4.38087 0.690697 3.57226 1.16335 2.87462C1.29265 2.67548 1.43385 2.48002 1.56995 2.2901Z" fill="#896CFE"/>
<path d="M6.32867 2.622C6.32425 2.62045 6.31947 2.62045 6.31505 2.622C6.31608 2.74643 6.30177 2.87046 6.27251 2.99078C6.23648 3.10528 6.1785 3.21022 6.10238 3.29871C6.03881 3.37874 5.96064 3.44365 5.8728 3.48934C5.78496 3.53504 5.68935 3.56053 5.59197 3.56423C5.43946 3.56252 5.29243 3.50243 5.17685 3.39459C4.82467 3.07744 4.7549 2.53534 4.65282 2.08175C4.54876 1.62495 4.34856 1.20047 4.06785 0.84155C3.78714 0.482627 3.43356 0.199008 3.03482 0.0129073C3.01833 0.00445929 3.00031 5.25368e-05 2.98207 1.3476e-07C2.94893 -4.96527e-05 2.91704 0.0136978 2.89297 0.0384036C2.86891 0.0631094 2.85451 0.0968869 2.85277 0.13276C2.83972 0.322153 2.81645 0.510553 2.78303 0.696988C2.59588 1.63737 1.93236 2.33251 1.43556 3.09404C0.867311 3.96988 0.46918 5.03934 0.571261 6.12723C0.697162 7.47142 1.57506 8.45421 2.64861 8.89305C2.44901 8.73619 2.28229 8.53532 2.15943 8.30365C2.03657 8.07198 1.96034 7.81474 1.93575 7.54886C1.9035 6.90866 2.07927 6.27644 2.43254 5.76214C2.71496 5.31407 3.09778 4.90473 3.20666 4.35157C3.22615 4.24194 3.23922 4.13108 3.24579 4.01967C3.24611 4.00631 3.24949 3.99324 3.25559 3.98163C3.26169 3.97002 3.27033 3.96022 3.28076 3.9531C3.2912 3.94599 3.30311 3.94178 3.31541 3.94084C3.32771 3.93991 3.34004 3.94229 3.35129 3.94776C3.58115 4.06063 3.78397 4.22923 3.94415 4.44056C4.10433 4.65189 4.21758 4.90028 4.27512 5.16656C4.33297 5.43208 4.3738 5.75292 4.57626 5.93915C4.85529 6.19545 5.22445 5.92071 5.22615 5.55009V5.51137L5.24148 5.4874C5.27926 5.55239 5.31282 5.62016 5.34188 5.69023V5.69945C5.51072 6.088 5.60597 6.50928 5.62204 6.93841C5.63811 7.36754 5.57469 7.79581 5.43546 8.19791C5.37015 8.3715 5.28063 8.53318 5.17004 8.67732C5.07477 8.80004 4.9649 8.90854 4.84335 9C5.37289 8.83038 5.84568 8.49796 6.20443 8.04302C6.39672 7.79863 6.55339 7.52378 6.66894 7.22803C6.77115 6.96452 6.84976 6.69099 6.90371 6.41119C6.95785 6.12826 6.98917 5.84075 6.99729 5.55194C7.00605 5.26122 6.99354 4.9702 6.95987 4.68162C6.92691 4.39423 6.87341 4.11003 6.79991 3.83159C6.72815 3.55721 6.63599 3.28958 6.52431 3.03135C6.49369 2.96312 6.46135 2.89121 6.42902 2.82299L6.37627 2.7142C6.36681 2.68006 6.35059 2.64858 6.32867 2.622Z" fill="#896CFE"/>
</svg>
