<svg width="25" height="29" viewBox="0 0 25 29" fill="none" xmlns="http://www.w3.org/2000/svg">
<path d="M20.0288 8.38955C19.6468 8.39048 19.2684 8.31398 18.9153 8.1644C18.5621 8.01483 18.2411 7.79512 17.9706 7.51788C17.7002 7.24063 17.4857 6.91129 17.3393 6.54872C17.1929 6.18614 17.1175 5.79745 17.1176 5.4049V2.11415e-05H4.88871C4.64443 -0.00117283 4.40242 0.0482171 4.1771 0.145197C3.95179 0.242177 3.74785 0.384795 3.57731 0.564532C3.40241 0.739775 3.2635 0.949397 3.16913 1.18094C3.07475 1.41248 3.02682 1.66117 3.02798 1.9122V14.2813C4.10938 13.7888 5.27829 13.5318 6.46111 13.5263C8.00081 13.5214 9.51316 13.9435 10.8388 14.7483C12.1645 15.553 13.2544 16.7104 13.9934 18.0985H22.0956C22.3687 18.0985 22.6306 18.2101 22.8238 18.4085C23.0169 18.607 23.1255 18.8762 23.1255 19.1569C23.1255 19.4376 23.0169 19.7069 22.8238 19.9053C22.6306 20.1038 22.3687 20.2153 22.0956 20.2153H14.7898C14.961 20.9073 15.0487 21.6182 15.0508 22.3321C15.0504 23.5998 14.7826 24.8524 14.2658 26.0035C13.749 27.1546 12.9953 28.1769 12.057 29H23.1393C23.6331 29.0006 24.1071 28.8002 24.4575 28.4426C24.6297 28.2656 24.7661 28.0554 24.8592 27.8242C24.9523 27.5929 25.0001 27.3451 25 27.0949V8.41072L20.0288 8.38955ZM6.13841 3.69737H10.0728C10.3459 3.69737 10.6078 3.80888 10.801 4.00736C10.9941 4.20585 11.1027 4.47506 11.1027 4.75577C11.1027 5.03647 10.9941 5.30566 10.801 5.50415C10.6078 5.70264 10.3459 5.81414 10.0728 5.81414H6.13841C5.86526 5.81414 5.6032 5.70264 5.41005 5.50415C5.2169 5.30566 5.10848 5.03647 5.10848 4.75577C5.10848 4.47506 5.2169 4.20585 5.41005 4.00736C5.6032 3.80888 5.86526 3.69737 6.13841 3.69737ZM14.014 10.6827H6.13841C5.86526 10.6827 5.6032 10.5712 5.41005 10.3727C5.2169 10.1743 5.10848 9.90505 5.10848 9.62435C5.10848 9.34364 5.2169 9.07445 5.41005 8.87596C5.6032 8.67748 5.86526 8.56595 6.13841 8.56595H13.9934C14.2665 8.56595 14.5284 8.67748 14.7216 8.87596C14.9147 9.07445 15.0233 9.34364 15.0233 9.62435C15.0233 9.90505 14.9147 10.1743 14.7216 10.3727C14.5284 10.5712 14.2665 10.6827 13.9934 10.6827H14.014ZM22.0887 24.9499H18.4564C18.1833 24.9499 17.9214 24.8384 17.7282 24.6399C17.5351 24.4414 17.4265 24.1722 17.4265 23.8915C17.4265 23.6108 17.5351 23.3416 17.7282 23.1431C17.9214 22.9446 18.1833 22.8331 18.4564 22.8331H22.0887C22.3619 22.8331 22.6238 22.9446 22.8169 23.1431C23.0101 23.3416 23.1187 23.6108 23.1187 23.8915C23.1187 24.1722 23.0101 24.4414 22.8169 24.6399C22.6238 24.8384 22.3619 24.9499 22.0887 24.9499Z" fill="white"/>
<path d="M20.0288 6.27275H24.9794L19.1637 0.47278V5.41192C19.1655 5.52683 19.1893 5.64026 19.2337 5.74571C19.2782 5.85116 19.3423 5.94656 19.4227 6.0265C19.503 6.10643 19.5979 6.16934 19.7019 6.2116C19.8059 6.25385 19.917 6.27462 20.0288 6.27275Z" fill="white"/>
<path d="M6.49545 28.9788C7.34774 28.9807 8.19182 28.809 8.97911 28.4735C9.76639 28.138 10.4812 27.6454 11.0821 27.0243C11.6856 26.4061 12.1643 25.6715 12.4907 24.8626C12.8171 24.0538 12.9848 23.1866 12.984 22.3109C12.9855 21.4352 12.8181 20.5678 12.4917 19.7588C12.1653 18.9498 11.6862 18.2153 11.0821 17.5976C10.4812 16.9764 9.76639 16.4839 8.97911 16.1484C8.19182 15.8129 7.34774 15.6411 6.49545 15.6431C5.64207 15.6406 4.79658 15.8121 4.00811 16.1476C3.21964 16.483 2.50371 16.9759 1.9018 17.5976C1.29888 18.2162 0.820706 18.9509 0.49435 19.7597C0.167995 20.5684 1.55378e-05 21.4354 0 22.3109C0.0015393 24.0789 0.685406 25.774 1.9018 27.0243C2.50371 27.646 3.21964 28.1388 4.00811 28.4743C4.79658 28.8098 5.64207 28.9813 6.49545 28.9788ZM4.63472 20.3C4.63439 20.1009 4.68817 19.9057 4.79029 19.7365C4.8924 19.5674 5.03869 19.431 5.21239 19.3428C5.38609 19.2547 5.58033 19.2183 5.77312 19.2378C5.96591 19.2573 6.14956 19.332 6.30318 19.4533L8.87802 21.4572C9.00608 21.5572 9.1098 21.6863 9.18127 21.8344C9.25274 21.9825 9.29007 22.1456 9.29007 22.3109C9.29007 22.4762 9.25274 22.6393 9.18127 22.7874C9.1098 22.9355 9.00608 23.0646 8.87802 23.1647L6.30318 25.1545C6.14956 25.2758 5.96591 25.3504 5.77312 25.3699C5.58033 25.3895 5.38609 25.3531 5.21239 25.2649C5.03869 25.1768 4.8924 25.0404 4.79029 24.8712C4.68817 24.702 4.63439 24.5068 4.63472 24.3078V20.3Z" fill="white"/>
<path d="M6.30318 25.1545L8.87803 23.1506C9.00609 23.0505 9.1098 22.9214 9.18127 22.7733C9.25274 22.6252 9.29007 22.4621 9.29007 22.2968C9.29007 22.1315 9.25274 21.9684 9.18127 21.8203C9.1098 21.6722 9.00609 21.5431 8.87803 21.443L6.30318 19.4392C6.14956 19.3179 5.96591 19.2432 5.77312 19.2237C5.58033 19.2042 5.38609 19.2406 5.21239 19.3287C5.03869 19.4169 4.8924 19.5533 4.79029 19.7224C4.68818 19.8916 4.63439 20.0868 4.63472 20.2859L4.63472 24.3078C4.63439 24.5068 4.68817 24.702 4.79029 24.8712C4.8924 25.0404 5.03869 25.1768 5.21239 25.2649C5.38609 25.3531 5.58033 25.3895 5.77312 25.3699C5.96591 25.3504 6.14956 25.2758 6.30318 25.1545Z" fill="#B3A0FF"/>
</svg>
