<svg width="6" height="11" viewBox="0 0 6 11" fill="none" xmlns="http://www.w3.org/2000/svg">
<path d="M5.41437 5.58179e-06C5.28785 -0.000575473 5.1648 0.0536306 5.06485 0.153934L0.230497 4.89786C0.158833 4.96852 0.100749 5.05964 0.0607675 5.16408C0.0207863 5.26853 1.6037e-06 5.38349 1.59352e-06 5.50003C1.58333e-06 5.61657 0.0207863 5.73153 0.0607674 5.83598C0.100749 5.94042 0.158833 6.03148 0.230497 6.10214L5.06485 10.8461C5.1648 10.9464 5.28785 11.0006 5.41436 11C5.49118 11.0003 5.56729 10.981 5.63833 10.9432C5.70938 10.9054 5.77395 10.8499 5.82836 10.7798C5.88276 10.7097 5.92592 10.6263 5.95538 10.5346C5.98483 10.4428 6 10.3445 6 10.2451L6 0.754856C6 0.655525 5.98483 0.557168 5.95538 0.465428C5.92592 0.373688 5.88276 0.290377 5.82836 0.220252C5.77395 0.150128 5.70938 0.0945717 5.63833 0.0567819C5.56729 0.0189921 5.49118 -0.000315872 5.41437 5.58179e-06Z" fill="#E2F163"/>
</svg>
