<svg width="40" height="40" viewBox="0 0 40 40" fill="none" xmlns="http://www.w3.org/2000/svg">
<circle cx="20" cy="20" r="20" fill="#896CFE"/>
<path d="M14.7763 12.7029C14.7752 12.0159 14.9105 11.3354 15.1742 10.7008C15.4379 10.0663 15.8248 9.49019 16.3126 9.00579C16.7945 8.52074 17.3678 8.13571 17.9994 7.87301C18.631 7.61031 19.3084 7.47508 19.9926 7.47514C20.6774 7.4746 21.3555 7.60958 21.9877 7.87229C22.62 8.13501 23.194 8.5203 23.6763 9.00579C24.1647 9.48963 24.5516 10.0657 24.8148 10.7005C25.0779 11.3352 25.2119 12.0159 25.2089 12.7029V14.9212C25.7323 15.2188 26.2279 15.5628 26.6897 15.949V12.6881C26.6858 10.9155 25.979 9.21669 24.7239 7.96328C23.4687 6.70987 21.7676 6.00391 19.9926 6C18.2179 6.00391 16.5171 6.70994 15.2626 7.96346C14.008 9.21697 13.302 10.9159 13.299 12.6881V15.949C13.7614 15.5635 14.2569 15.2196 14.7799 14.9212L14.7763 12.7029Z" fill="white"/>
<path d="M13.636 30.3677C14.4709 31.2034 15.4629 31.8661 16.5551 32.3179C17.6472 32.7696 18.8179 33.0014 20 33C21.1822 33.0018 22.3531 32.7702 23.4453 32.3184C24.5375 31.8667 25.5293 31.2037 26.364 30.3677C27.2018 29.5347 27.8662 28.5441 28.3187 27.4533C28.7711 26.3625 29.0026 25.1931 29 24.0124C29.0022 22.8318 28.7705 21.6624 28.3181 20.5716C27.8657 19.4809 27.2015 18.4903 26.364 17.657C25.5293 16.8209 24.5375 16.158 23.4453 15.7063C22.3531 15.2545 21.1822 15.0229 20 15.0247C18.8179 15.0233 17.6472 15.2551 16.5551 15.7068C15.4629 16.1585 14.4709 16.8213 13.636 17.657C12.7998 18.4912 12.1365 19.482 11.6842 20.5725C11.2319 21.6631 10.9994 22.832 11 24.0124C10.999 25.1928 11.2313 26.3618 11.6837 27.4524C12.136 28.543 12.7995 29.5337 13.636 30.3677ZM20 20.0158C20.3149 20.0153 20.6267 20.0768 20.9178 20.1968C21.2088 20.3168 21.4733 20.4929 21.6962 20.7151C21.919 20.9372 22.0958 21.2011 22.2164 21.4916C22.337 21.782 22.399 22.0934 22.399 22.4078C22.3987 22.9157 22.2369 23.4103 21.9368 23.8203C21.6366 24.2303 21.2139 24.5345 20.7294 24.6889C20.733 24.7258 20.733 24.7629 20.7294 24.7998V28.02C20.7294 28.2161 20.6513 28.4042 20.5125 28.5429C20.3736 28.6816 20.1853 28.7594 19.989 28.7594C19.7926 28.7594 19.6041 28.6816 19.4653 28.5429C19.3264 28.4042 19.2485 28.2161 19.2485 28.02V24.7998C19.2485 24.7629 19.2485 24.7259 19.2485 24.6889C18.7647 24.5339 18.3426 24.2295 18.0432 23.8195C17.7438 23.4095 17.5826 22.9152 17.5826 22.4078C17.5821 22.0921 17.6441 21.7795 17.7651 21.4879C17.8862 21.1963 18.0639 20.9314 18.2879 20.7087C18.512 20.486 18.7779 20.3098 19.0705 20.1903C19.363 20.0707 19.6765 20.0101 19.9926 20.0121L20 20.0158Z" fill="white"/>
</svg>
