<svg width="14" height="18" viewBox="0 0 14 18" fill="none" xmlns="http://www.w3.org/2000/svg">
<path d="M0.23571 14.3828C0.410792 14.639 0.664043 14.8289 0.956129 14.9228C1.80183 15.1788 2.66886 15.3547 3.54624 15.4485C4.67501 15.5795 5.81038 15.6436 6.94644 15.6405C8.08328 15.6437 9.21928 15.5796 10.3488 15.4485C11.2262 15.3547 12.0932 15.1788 12.9389 14.9228C13.231 14.8289 13.4844 14.639 13.6595 14.3828C13.8231 14.1407 13.9103 13.8534 13.9091 13.5594C13.909 13.3663 13.8708 13.1753 13.7968 12.9975C13.7227 12.8198 13.6143 12.6591 13.4782 12.5249C13.0304 12.0631 12.7062 11.4921 12.5363 10.8663C12.3792 10.3288 12.2998 9.77088 12.3008 9.21007C12.3008 8.97003 12.3126 8.78042 12.3244 8.6244C12.3432 8.41557 12.3574 8.20191 12.3574 7.98348C12.3586 7.75199 12.3413 7.52082 12.3056 7.29221C12.1002 6.00692 11.4545 4.83749 10.4831 3.99177C9.87952 3.46125 9.16768 3.07426 8.39924 2.85882C8.61407 2.55294 8.72934 2.18605 8.72886 1.80985C8.72886 1.32985 8.5418 0.869522 8.20884 0.53011C7.87589 0.190699 7.42432 0 6.95345 0C6.483 0.000636054 6.032 0.191647 5.69956 0.530989C5.36712 0.870332 5.18046 1.33027 5.18046 1.80985C5.17998 2.18605 5.29525 2.55294 5.51009 2.85882C4.74164 3.07426 4.02981 3.46125 3.4262 3.99177C2.45483 4.83749 1.80901 6.00692 1.60366 7.29221C1.56795 7.52082 1.55069 7.75199 1.55192 7.98348C1.55192 8.20191 1.56608 8.41557 1.58492 8.6244C1.58492 8.78042 1.60837 8.97964 1.60837 9.21007C1.61205 9.77022 1.53678 10.328 1.38475 10.8663C1.2115 11.4933 0.883059 12.0645 0.431048 12.5249C0.294864 12.6591 0.186598 12.8198 0.112574 12.9975C0.0385493 13.1753 0.000373566 13.3663 0.000245409 13.5594C-0.00510127 13.8519 0.0770289 14.1391 0.23571 14.3828ZM6.35778 2.41234C6.20424 2.25114 6.11958 2.03452 6.12232 1.80985C6.11995 1.58597 6.2046 1.37023 6.35778 1.20977C6.51533 1.05384 6.72687 0.967586 6.94644 0.96974C7.16683 0.96695 7.37928 1.05325 7.5374 1.20977C7.69058 1.37023 7.77524 1.58597 7.77287 1.80985C7.7756 2.03452 7.69094 2.25114 7.5374 2.41234C7.37928 2.56885 7.16683 2.65516 6.94644 2.65237C6.83651 2.65452 6.72724 2.63444 6.62498 2.59324C6.52272 2.55204 6.42944 2.49053 6.35065 2.41234H6.35778Z" fill="#896CFE"/>
<path d="M7.87641 16.0486C7.81503 16.0408 7.75275 16.0455 7.69314 16.0623C7.63353 16.0791 7.57783 16.1078 7.52907 16.1465C7.48031 16.1853 7.43953 16.2335 7.40904 16.2884C7.37855 16.3432 7.3589 16.4036 7.35132 16.4662C7.33242 16.6237 7.25789 16.7687 7.14173 16.8743C7.02381 16.9815 6.87122 17.0404 6.71323 17.0399C6.55712 17.0401 6.40637 16.9821 6.28944 16.8767C6.17273 16.7722 6.09729 16.628 6.07743 16.471C6.06101 16.3451 5.99636 16.2309 5.89749 16.1535C5.79862 16.0761 5.67366 16.0418 5.55005 16.0582C5.48865 16.0662 5.42934 16.0864 5.37563 16.1178C5.32192 16.1491 5.27481 16.191 5.23698 16.2409C5.19914 16.2908 5.17142 16.3479 5.15523 16.4088C5.13904 16.4697 5.13477 16.5333 5.1427 16.5958C5.19249 16.9823 5.37819 17.3371 5.66536 17.5944C5.95404 17.856 6.32698 18.0003 6.71323 18C7.10232 17.9996 7.47772 17.8536 7.7681 17.5896C8.05554 17.3291 8.23981 16.9706 8.28617 16.5814C8.3008 16.4554 8.2659 16.3287 8.18913 16.2288C8.11236 16.129 7.99991 16.0642 7.87641 16.0486Z" fill="#896CFE"/>
</svg>
