<svg width="40" height="40" viewBox="0 0 40 40" fill="none" xmlns="http://www.w3.org/2000/svg">
<circle cx="20" cy="20" r="20" fill="#896CFE"/>
<path d="M20 15.4726C20.5518 15.4726 21.0982 15.3629 21.6079 15.1499C22.1176 14.9368 22.5807 14.6246 22.9707 14.231C23.3607 13.8374 23.6699 13.3702 23.8807 12.856C24.0915 12.3419 24.1998 11.7908 24.1993 11.2344C24.1993 10.1114 23.7569 9.03429 22.9694 8.24018C22.1819 7.44608 21.1137 7 20 7C18.8863 7 17.8183 7.44608 17.0308 8.24018C16.2432 9.03429 15.8007 10.1114 15.8007 11.2344C15.8007 12.3578 16.243 13.4352 17.0304 14.2299C17.8178 15.0246 18.8859 15.4716 20 15.4726Z" fill="white"/>
<path d="M30 27.822C29.999 25.1484 28.945 22.5845 27.0698 20.6943C25.1945 18.8041 22.6515 17.7423 20 17.7423C17.3485 17.7423 14.8057 18.8041 12.9304 20.6943C11.0552 22.5845 10.001 25.1484 10 27.822C10 33.3927 30 33.3927 30 27.822Z" fill="white"/>
</svg>
