<svg width="23" height="23" viewBox="0 0 23 23" fill="none" xmlns="http://www.w3.org/2000/svg">
<circle cx="11.5" cy="11.5" r="11.5" fill="#896CFE"/>
<path d="M10.7929 5.66396L15.9956 9.20323C16.3344 9.43385 16.609 9.73159 16.7982 10.0732C16.9873 10.4147 17.0857 10.7909 17.0857 11.1722C17.0857 11.5535 16.9873 11.9295 16.7982 12.2711C16.609 12.6127 16.3344 12.9104 15.9956 13.141L10.7929 16.6833C10.463 16.9068 10.0702 17.0434 9.65852 17.0778C9.2468 17.1122 8.83239 17.043 8.46213 16.878C8.09186 16.713 7.78031 16.4587 7.56239 16.1438C7.34447 15.8288 7.22882 15.4656 7.22852 15.095V7.24929C7.22819 6.87847 7.3435 6.5149 7.56141 6.19967C7.77932 5.88445 8.09119 5.63009 8.4618 5.46525C8.83242 5.30041 9.24713 5.23164 9.65901 5.26675C10.0709 5.30186 10.4636 5.43946 10.7929 5.66396Z" fill="white"/>
</svg>
