<svg width="19" height="19" viewBox="0 0 19 19" fill="none" xmlns="http://www.w3.org/2000/svg">
<path d="M14.6818 13.1471L18.3437 15.5172C18.6702 15.7287 18.8963 16.0568 18.9721 16.4292C19.048 16.8017 18.9675 17.1879 18.7482 17.503C18.529 17.8181 18.189 18.0363 17.8031 18.1095C17.4172 18.1827 17.017 18.105 16.6904 17.8934C16.5173 17.7797 16.3703 17.6328 16.2589 17.4617L13.9329 13.8453C13.8692 13.7454 13.8428 13.6276 13.858 13.5113C13.8688 13.4291 13.8998 13.3512 13.9479 13.2838C11.5217 15.5417 8.12587 15.2998 8.12587 15.2998C8.12587 15.2998 2.53463 15.6979 0.573573 10.7066C-0.191191 8.73814 -0.191191 6.56904 0.573573 4.60063C2.53463 -0.387635 8.12587 0.00738439 8.12587 0.00738439C8.12587 0.00738439 13.7139 -0.384572 15.6749 4.60063C16.4429 6.56849 16.4429 8.7387 15.6749 10.7066C15.2722 11.7316 14.7164 12.5294 14.0876 13.15C14.1618 13.1013 14.2481 13.0713 14.3384 13.0633C14.4594 13.0527 14.5806 13.0822 14.6818 13.1471Z" fill="#896CFE"/>
<ellipse cx="8" cy="7.55729" rx="6" ry="5.54167" fill="#212020"/>
</svg>
