<svg width="40" height="40" viewBox="0 0 40 40" fill="none" xmlns="http://www.w3.org/2000/svg">
<circle cx="20" cy="20" r="20" fill="#896CFE"/>
<path d="M7.09778 24.5735L9.85615 29.3931C9.95057 29.5569 10.1054 29.6765 10.2869 29.7258C10.4684 29.775 10.6619 29.7499 10.8252 29.656L14.4491 27.5695C15.2265 28.2002 16.0971 28.7043 17.0293 29.0635V33.2823C17.0293 33.4719 17.1037 33.6538 17.2364 33.7883C17.3691 33.9228 17.5493 33.9989 17.7375 34H23.2623C23.3557 34 23.4481 33.9814 23.5343 33.9453C23.6205 33.9092 23.6989 33.8562 23.7647 33.7895C23.8305 33.7228 23.8826 33.6436 23.918 33.5565C23.9533 33.4695 23.9711 33.3763 23.9705 33.2823V29.0635C24.9028 28.7043 25.7734 28.2002 26.5508 27.5695L30.1746 29.656C30.3379 29.7499 30.5314 29.775 30.713 29.7258C30.8945 29.6765 31.0495 29.5569 31.1439 29.3931L33.9063 24.5735C33.9995 24.4089 34.0244 24.214 33.9755 24.0311C33.9266 23.8481 33.808 23.6921 33.6455 23.597L30.0173 21.4856C30.0967 20.9902 30.1384 20.4893 30.1417 19.9875C30.1382 19.487 30.0966 18.9876 30.0173 18.4935L33.6455 16.3822C33.808 16.287 33.9266 16.131 33.9755 15.9481C34.0244 15.7651 33.9995 15.5702 33.9063 15.4057L31.1439 10.586C31.0495 10.4222 30.8945 10.3026 30.713 10.2534C30.5314 10.2041 30.3379 10.2292 30.1746 10.3231L26.5508 12.4304C25.7725 11.7999 24.9022 11.2946 23.9705 10.9324V6.71354C23.9705 6.5243 23.8961 6.34287 23.7633 6.20905C23.6304 6.07523 23.4502 6 23.2623 6H17.7375C17.55 6.0011 17.3706 6.07659 17.238 6.21017C17.1054 6.34375 17.0304 6.52463 17.0293 6.71354V10.9324C16.0977 11.2946 15.2273 11.7999 14.4491 12.4304L10.8252 10.3231C10.6619 10.2292 10.4684 10.2041 10.2869 10.2534C10.1054 10.3026 9.95057 10.4222 9.85615 10.586L7.09778 15.4057C7.05092 15.4867 7.02025 15.5763 7.00779 15.6693C6.99533 15.7623 7.00133 15.8569 7.02519 15.9475C7.04904 16.0382 7.0904 16.1233 7.14693 16.1979C7.20345 16.2724 7.27405 16.3351 7.35461 16.3822L10.9868 18.4935C10.9041 18.9872 10.8612 19.4868 10.8584 19.9875C10.861 20.4895 10.9039 20.9905 10.9868 21.4856L7.35461 23.597C7.27364 23.6436 7.20255 23.706 7.14571 23.7805C7.08888 23.8551 7.04746 23.9403 7.02357 24.0312C6.99968 24.122 6.99383 24.2167 7.00658 24.3098C7.01933 24.4029 7.05036 24.4925 7.09778 24.5735ZM20.4999 17.0205C20.8848 17.021 21.2658 17.098 21.6211 17.2469C21.9764 17.3958 22.2991 17.6138 22.5707 17.8885C22.8439 18.162 23.061 18.487 23.2096 18.845C23.3581 19.203 23.435 19.5869 23.4363 19.9749C23.432 20.7582 23.1209 21.508 22.5707 22.0614C22.2991 22.3361 21.9764 22.5542 21.6211 22.7031C21.2658 22.852 20.8848 22.9289 20.4999 22.9294C20.1151 22.9289 19.7341 22.852 19.3788 22.7031C19.0235 22.5542 18.7008 22.3361 18.4291 22.0614C17.8789 21.508 17.5679 20.7582 17.5636 19.9749C17.5648 19.5869 17.6418 19.203 17.7903 18.845C17.9388 18.487 18.1559 18.162 18.4291 17.8885C18.9791 17.3368 19.7239 17.0276 20.4999 17.0289V17.0205Z" fill="white"/>
</svg>
