<svg width="40" height="40" viewBox="0 0 40 40" fill="none" xmlns="http://www.w3.org/2000/svg">
<circle cx="20" cy="20" r="20" fill="#896CFE"/>
<path d="M31.2275 15.4476L26.4956 14.2562C25.9106 14.1069 25.4041 13.7406 25.0793 13.2317L22.4831 9.09939C22.2752 8.76024 21.9831 8.48071 21.6351 8.28806C21.287 8.0954 20.8949 7.9962 20.4971 8.00011C20.1002 7.9972 19.7095 8.09687 19.3625 8.28948C19.0155 8.48208 18.7242 8.76108 18.5169 9.09939L15.9149 13.2317C15.5936 13.7415 15.0887 14.1082 14.5045 14.2562L9.77259 15.4476C9.38766 15.5442 9.03354 15.7369 8.74353 16.0078C8.45353 16.2787 8.23717 16.6187 8.11461 16.9961C7.99205 17.3735 7.96725 17.7758 8.04279 18.1653C8.11832 18.5549 8.29161 18.9188 8.54635 19.2231L11.6723 22.9698C12.0588 23.4324 12.2525 24.0259 12.2134 24.6274L11.8852 29.4964C11.864 29.8166 11.9086 30.1378 12.0163 30.4401C12.1241 30.7424 12.2927 31.0194 12.5118 31.254C12.7308 31.4886 12.9956 31.6759 13.2898 31.8042C13.584 31.9325 13.9014 31.9991 14.2224 32C14.522 31.9998 14.8189 31.9432 15.0975 31.8331L19.6278 30.0144C19.9048 29.9055 20.1995 29.8489 20.4971 29.8475C20.7966 29.8483 21.0933 29.9049 21.3721 30.0144L25.9026 31.8331C26.1812 31.9432 26.4781 31.9998 26.7777 32C27.0986 31.9991 27.4159 31.9325 27.7102 31.8042C28.0044 31.6759 28.2692 31.4886 28.4882 31.254C28.7072 31.0194 28.8759 30.7424 28.9836 30.4401C29.0914 30.1378 29.136 29.8166 29.1147 29.4964L28.7867 24.6274C28.7476 24.0259 28.9413 23.4324 29.3278 22.9698L32.4536 19.2231C32.7083 18.9188 32.8816 18.5549 32.9572 18.1653C33.0327 17.7758 33.0081 17.3735 32.8855 16.9961C32.7629 16.6187 32.5464 16.2787 32.2564 16.0078C31.9664 15.7369 31.6124 15.5442 31.2275 15.4476Z" fill="white"/>
</svg>
