<svg width="9" height="9" viewBox="0 0 9 9" fill="none" xmlns="http://www.w3.org/2000/svg">
<path d="M4.5 9C5.69336 8.99962 6.83774 8.52533 7.68157 7.68137C8.5254 6.8374 8.99962 5.69285 9 4.4993C8.99962 3.30589 8.52534 2.16146 7.68146 1.31773C6.83759 0.473991 5.69323 -6.02897e-08 4.5 0C3.30677 -6.02897e-08 2.16237 0.473991 1.3185 1.31773C0.474627 2.16146 0.000379284 3.30589 0 4.4993C0.000379145 5.69285 0.474598 6.8374 1.31843 7.68137C2.16226 8.52533 3.30664 8.99962 4.5 9ZM2.55036 5.65378L4.21392 4.36623V2.55652C4.21392 2.48064 4.24405 2.40785 4.2977 2.35419C4.35135 2.30053 4.42413 2.2704 4.5 2.2704C4.57587 2.2704 4.64862 2.30053 4.70227 2.35419C4.75592 2.40785 4.78608 2.48064 4.78608 2.55652V4.50643C4.78608 4.50643 4.78608 4.51789 4.78608 4.52361C4.78608 4.52933 4.78608 4.54363 4.78608 4.55365C4.78436 4.5624 4.78196 4.571 4.77892 4.57939C4.77974 4.58843 4.77974 4.59756 4.77892 4.6066L4.76746 4.63234L4.75461 4.65665L4.73886 4.67956C4.73343 4.68691 4.72721 4.69361 4.72028 4.69957C4.71387 4.70743 4.70666 4.7146 4.69881 4.72102L4.68735 4.73247L2.91225 6.11304C2.85244 6.15934 2.77673 6.18005 2.70168 6.17067C2.62662 6.16128 2.55832 6.12256 2.51174 6.06295C2.48684 6.03381 2.46805 5.99996 2.45649 5.96341C2.44493 5.92686 2.44084 5.88834 2.44444 5.85017C2.44805 5.81201 2.45928 5.77498 2.47748 5.74124C2.49568 5.7075 2.52045 5.67775 2.55036 5.65378Z" fill="#896CFE"/>
</svg>
